# xmcd CD database file
#
# Track frame offsets:
#	150
#	21507
#	43269
#	66893
#
# Disc length: 1132 seconds
#
# Revision: 0
# Processed by: cddbd v1.4PL0 Copyright (c) Steve Scherf et al.
# Submitted via: CDex 1.40Beta9
#
DISCID=36046a04
DTITLE=Zucchero - Ahum
DYEAR=2001
DGENRE=Blues
TTITLE0=Ahum
TTITLE1=Così Celeste
TTITLE2=Pane e Salame
TTITLE3=Mama (madre Dolcissima)
EXTD=YEAR: 2001 ID3G: 0
EXTT0=
EXTT1=
EXTT2=
EXTT3=
PLAYORDER=
